<?xml version="1.0" encoding="UTF-8"?>
<!DOCTYPE svg PUBLIC "-//W3C//DTD SVG 1.1//EN" "http://www.w3.org/Graphics/SVG/1.1/DTD/svg11.dtd">
<!-- Creator: CorelDRAW -->
<svg xmlns="http://www.w3.org/2000/svg" xml:space="preserve" width="110px" height="70px" version="1.1" style="shape-rendering:geometricPrecision; text-rendering:geometricPrecision; image-rendering:optimizeQuality; fill-rule:evenodd; clip-rule:evenodd"
viewBox="0 0 18.11 11.52"
 xmlns:xlink="http://www.w3.org/1999/xlink"
 xmlns:xodm="http://www.corel.com/coreldraw/odm/2003">
 <defs>
  <style type="text/css">
   <![CDATA[
    .fil0 {fill:none}
    .fil1 {fill:#B5BFD2}
   ]]>
  </style>
 </defs>
 <g id="Layer_x0020_1">
  <metadata id="CorelCorpID_0Corel-Layer"/>
  <g id="_36079421184">
   <rect class="fil0" width="18.11" height="11.52"/>
   <g>
    <path class="fil1" d="M12.7 5.35l-3.59 0c0.04,0.06 0.19,0.14 0.26,0.19 0.14,0.11 0.11,0.1 0.22,0.24 0.62,0.01 1.25,0 1.87,0 0.4,0 1.57,-0.02 1.89,0.02 0.9,0.08 2.02,0.64 2.16,1.63 0.15,1.05 -0.83,1.8 -1.75,2 -0.52,0.11 -1.28,0.06 -1.82,0.06l-5.68 0c-1.08,0 -2.26,0.14 -3.11,-0.67 -1.28,-1.22 -0.23,-2.79 1.52,-3.01 0.33,-0.04 1.48,-0.03 1.88,-0.03l0.19 -0.42c-0.3,-0.02 -1.62,-0.02 -1.91,0 -1.52,0.1 -3.27,1.27 -2.69,2.91 0.34,0.95 1.26,1.49 2.21,1.65 0.43,0.08 1.41,0.05 1.89,0.05l5.79 0c1.17,0 2.23,0.11 3.2,-0.67 0.83,-0.67 1.14,-1.76 0.52,-2.69 -0.57,-0.85 -1.63,-1.22 -2.61,-1.26 -0.01,-0.19 -0.02,-1.58 0,-1.67 0.44,-0.1 1.07,-0.13 1.52,-0.13 0.11,0 0.29,0.04 0.29,-0.12 0,-0.09 -0.13,-0.16 -0.2,-0.21 -0.28,-0.21 -0.28,-0.22 0.03,-0.4 0.11,-0.06 0.52,-0.21 0.33,-0.38 -0.05,-0.05 -0.52,-0.17 -0.62,-0.2 -0.49,-0.15 -0.83,-0.27 -1.35,-0.31 -0.02,-0.16 0.01,-0.34 -0.24,-0.32 -0.23,0.02 -0.2,0.2 -0.2,0.37 0,0.27 0.01,3.24 0,3.37z"/>
    <path class="fil1" d="M9.42 6.89c-0.07,0.2 -0.17,0.46 -0.25,0.65 -0.29,0.63 -1.24,0.45 -1.21,-0.29 0,-0.16 0.07,-0.24 0.09,-0.37 -0.71,-0.01 -0.49,-0.06 -0.91,0.27 -0.22,0.17 -0.44,0.34 -0.66,0.51 -0.14,0.11 -0.21,0.17 -0.39,0.2 -0.32,0.04 -0.63,-0.16 -0.7,-0.49 -0.05,-0.21 -0.01,-0.3 0.07,-0.48 -0.37,-0.01 -0.73,-0.03 -1.08,0.13 -0.71,0.32 -0.58,1.07 0.22,1.27 0.34,0.08 0.82,0.05 1.18,0.05 1.63,0 3.25,0 4.88,0 0.81,0 1.63,0.01 2.44,0 1.45,-0.02 1.46,-1.43 -0.01,-1.46 -0.41,-0.01 -0.82,0 -1.22,0 -0.81,0 -1.64,-0.01 -2.45,0.01z"/>
    <path class="fil1" d="M9.66 6.09c0.01,0.18 -0.05,0.3 -0.11,0.47 0.09,0.03 2.6,0.01 2.93,0.01 0.45,0 0.91,-0.04 1.34,0.13 0.89,0.36 1,1.24 0.26,1.7 -0.4,0.25 -0.75,0.26 -1.21,0.26l-7.38 0.01c-0.46,-0.01 -0.86,0.03 -1.3,-0.18 -0.83,-0.39 -0.89,-1.27 -0.06,-1.71 0.42,-0.23 0.8,-0.21 1.27,-0.21 0.32,-0.01 0.32,0.06 0.58,-0.15 0.13,-0.11 0.29,-0.22 0.41,-0.34 -0.35,0 -1.39,-0.01 -1.68,0.03 -1.8,0.24 -2.32,1.82 -1.06,2.67 0.38,0.25 0.87,0.38 1.32,0.39 0.56,0.01 1.14,0 1.7,0l5.96 0c0.27,0 0.56,0.01 0.82,-0.03 0.85,-0.11 1.84,-0.72 1.69,-1.7 -0.15,-0.92 -1.25,-1.35 -2.07,-1.36 -0.56,0 -1.14,0 -1.7,0 -0.57,0 -1.14,-0.01 -1.71,0.01z"/>
    <path class="fil1" d="M7.84 3.65c-0.02,0.06 -0.38,0.65 -0.44,0.74 -0.17,0.29 -0.35,0.52 -0.2,0.87 0.11,0.26 0.41,0.38 0.64,0.54 0.11,0.07 0.25,0.16 0.36,0.23 0.11,0.06 0.26,0.18 0.37,0.23 -0.05,0.18 -0.15,0.4 -0.21,0.58 -0.07,0.22 -0.2,0.39 -0.09,0.62 0.1,0.21 0.37,0.23 0.54,0.11 0.12,-0.09 0.21,-0.4 0.26,-0.54 0.08,-0.19 0.15,-0.38 0.22,-0.57 0.08,-0.22 0.18,-0.39 0.01,-0.61 -0.13,-0.18 -0.74,-0.48 -0.94,-0.66 0.01,-0.06 0.53,-0.79 0.6,-0.86 0.84,0.71 0.56,0.77 1.55,0.14 0.11,-0.07 0.3,-0.16 0.33,-0.3 0.05,-0.17 -0.03,-0.37 -0.22,-0.41 -0.27,-0.06 -0.61,0.33 -0.86,0.43 -0.09,-0.07 -0.18,-0.18 -0.27,-0.26 -0.09,-0.08 -0.18,-0.18 -0.27,-0.26 -0.17,-0.15 -0.42,-0.29 -0.61,-0.45 -0.29,-0.24 -0.46,-0.22 -0.83,-0.22 -0.17,0 -0.35,-0.01 -0.53,0 -0.18,0 -0.24,0.06 -0.36,0.18 -0.16,0.18 -0.33,0.39 -0.5,0.56 -0.09,0.09 -0.19,0.2 -0.18,0.34 0,0.14 0.09,0.27 0.23,0.3 0.25,0.05 0.42,-0.2 0.62,-0.43 0.31,-0.35 0.17,-0.32 0.78,-0.3z"/>
    <path class="fil1" d="M7.67 5.9c-0.1,-0.05 -0.25,-0.16 -0.35,-0.22 -0.17,-0.11 -0.16,-0.17 -0.27,-0.31 -0.12,0.14 -0.35,0.84 -0.46,0.91l-0.76 0.61c-0.21,0.17 -0.27,0.42 -0.06,0.61 0.22,0.2 0.45,0.02 0.62,-0.12 0.17,-0.14 0.35,-0.27 0.52,-0.4 0.21,-0.18 0.32,-0.21 0.46,-0.47 0.07,-0.15 0.26,-0.48 0.3,-0.61z"/>
    <path class="fil1" d="M8.49 2.32c0.09,0.04 1.21,0.17 1.4,0.2 0.15,0.01 0.58,0.1 0.71,0.03 0.12,-0.06 0.04,-0.19 -0.07,-0.23 -0.57,-0.19 -0.39,-0.07 -0.49,-0.3 -0.2,-0.44 -0.82,-0.68 -1.3,-0.26 -0.12,0.1 -0.3,0.41 -0.25,0.56z"/>
    <path class="fil1" d="M10.06 2.69c-0.03,-0.02 -1.5,-0.23 -1.57,-0.23 -0.07,0.4 0.3,0.79 0.68,0.84 0.41,0.07 0.82,-0.21 0.89,-0.61z"/>
   </g>
  </g>
 </g>
</svg>
