<?xml version="1.0" encoding="UTF-8"?>
<!DOCTYPE svg PUBLIC "-//W3C//DTD SVG 1.1//EN" "http://www.w3.org/Graphics/SVG/1.1/DTD/svg11.dtd">
<!-- Creator: CorelDRAW -->
<svg xmlns="http://www.w3.org/2000/svg" xml:space="preserve" width="50px" height="50px" version="1.1" style="shape-rendering:geometricPrecision; text-rendering:geometricPrecision; image-rendering:optimizeQuality; fill-rule:evenodd; clip-rule:evenodd"
viewBox="0 0 16.05 16.05"
 xmlns:xlink="http://www.w3.org/1999/xlink"
 xmlns:xodm="http://www.corel.com/coreldraw/odm/2003">
 <defs>
  <style type="text/css">
   <![CDATA[
    .fil0 {fill:none}
    .fil1 {fill:#9BACBF}
   ]]>
  </style>
 </defs>
 <g id="Layer_x0020_1">
  <metadata id="CorelCorpID_0Corel-Layer"/>
  <rect class="fil0" width="16.05" height="16.05"/>
  <g id="_39060091488">
   <path class="fil1" d="M2.14 12.27l2.56 -2.87c0.21,-0.23 0.56,-0.25 0.79,-0.05l1.46 1.31c0.23,0.2 0.25,0.56 0.05,0.79l-2.56 2.87c-0.2,0.22 -0.56,0.24 -0.79,0.04l-1.46 -1.31c-0.23,-0.2 -0.25,-0.55 -0.05,-0.78z"/>
   <path class="fil1" d="M9.26 2.63c1.98,0 3.59,1.61 3.59,3.59 0,1.97 -1.61,3.58 -3.59,3.58 -1.98,0 -3.58,-1.61 -3.58,-3.58 0,-1.98 1.6,-3.59 3.58,-3.59zm0.09 -1.08c2.6,0 4.7,2.11 4.7,4.7 0,2.6 -2.1,4.7 -4.7,4.7 -2.59,0 -4.7,-2.1 -4.7,-4.7 0,-2.59 2.11,-4.7 4.7,-4.7z"/>
  </g>
 </g>
</svg>
