<?xml version="1.0" encoding="UTF-8"?>
<!DOCTYPE svg PUBLIC "-//W3C//DTD SVG 1.1//EN" "http://www.w3.org/Graphics/SVG/1.1/DTD/svg11.dtd">
<!-- Creator: CorelDRAW -->
<svg xmlns="http://www.w3.org/2000/svg" xml:space="preserve" width="110px" height="70px" version="1.1" style="shape-rendering:geometricPrecision; text-rendering:geometricPrecision; image-rendering:optimizeQuality; fill-rule:evenodd; clip-rule:evenodd"
viewBox="0 0 22.65 14.42"
 xmlns:xlink="http://www.w3.org/1999/xlink"
 xmlns:xodm="http://www.corel.com/coreldraw/odm/2003">
 <defs>
  <style type="text/css">
   <![CDATA[
    .fil6 {fill:none}
    .fil5 {fill:#68819F}
    .fil0 {fill:#6C85A1}
    .fil1 {fill:#6C85A2}
    .fil3 {fill:#6D85A5}
    .fil2 {fill:#6D86A3}
    .fil4 {fill:#6E87A4}
   ]]>
  </style>
 </defs>
 <g id="Layer_x0020_1">
  <metadata id="CorelCorpID_0Corel-Layer"/>
  <g id="_36084824096">
   <g>
    <path class="fil0" d="M6.19 11.67c0.02,-0.44 0.06,-0.91 0.09,-1.36 0.04,-0.45 0.07,-0.91 0.1,-1.36 0.04,-0.45 0.06,-0.9 0.1,-1.36 0.03,-0.49 -0.15,-0.42 1.03,-0.42 0.25,0 0.5,0 0.74,0 0.16,0.01 0.17,0.05 0.18,0.2l0.21 3.05c0.01,0.22 0.03,0.45 0.05,0.67 0.01,0.21 0.04,0.47 0.04,0.67 -0.2,-0.14 -0.29,-0.22 -0.53,-0.31 -0.23,-0.08 -0.45,-0.13 -0.7,-0.14 -0.25,-0.01 -0.51,0.02 -0.75,0.09 -0.1,0.03 -0.2,0.07 -0.3,0.12 -0.08,0.04 -0.18,0.13 -0.26,0.15zm3.54 -6.32c0.1,-0.03 1.32,-0.01 1.52,-0.01 0.26,0 0.52,0 0.77,0 0.12,0 0.65,-0.03 0.71,0.04 0.04,0.06 0.14,1.8 0.17,2.12 0.03,0.44 0.08,0.49 -0.22,0.49 -0.51,0 -1.03,0 -1.54,0 -0.49,0 -1.03,0.02 -1.52,0 -0.16,-0.01 -0.14,-0.1 -0.13,-0.23l0.15 -2.13c0.01,-0.09 -0.01,-0.25 0.09,-0.28zm1.32 -1.77c-0.15,0.01 -0.35,-0.03 -0.39,0.16 -0.03,0.15 0.02,0.39 -0.02,0.54 -0.06,0.08 -0.6,0.04 -0.62,0.03 -0.13,-0.14 0.07,-0.56 -0.14,-0.7 -0.08,-0.05 -0.69,-0.05 -0.77,0 -0.18,0.1 -0.12,0.54 -0.12,0.72 0,0.22 -0.03,0.61 0.07,0.79 0.15,0.24 0.32,0.13 0.29,0.51 -0.05,0.67 -0.09,1.8 -0.17,2.35l-0.43 0.01c0,-0.15 -0.02,-0.32 -0.03,-0.48 -0.03,-0.37 -0.05,-0.32 0.08,-0.42 0.16,-0.15 0.11,-0.69 0.11,-0.92 0,-0.14 0.04,-0.35 -0.14,-0.38 -0.1,-0.01 -0.38,-0.02 -0.45,0.06 -0.08,0.1 0.02,0.37 -0.05,0.45 -0.07,0.07 -0.39,0.04 -0.47,0 -0.08,-0.32 0.14,-0.5 -0.3,-0.51 -0.52,-0.01 -0.31,0.09 -0.37,0.45 -0.02,0.13 -0.19,0.09 -0.3,0.09 -0.19,0 -0.23,0.01 -0.23,-0.19 0.01,-0.4 -0.07,-0.37 -0.46,-0.35 -0.28,0.01 -0.2,0.4 -0.2,0.62 0,0.2 -0.05,0.55 0.15,0.68 0.19,0.12 0.12,0.15 0.09,0.65l-0.27 3.82c-0.03,0.4 -0.33,0.29 -0.75,0.87 -0.24,0.32 -0.12,0.24 -0.39,0.43 -0.14,0.09 -0.42,0.23 -0.37,0.42 0.3,0.16 0.74,-0.31 0.91,-0.52 0.8,-0.97 2.04,-1.33 3.22,-0.79 0.38,0.17 0.62,0.37 1.06,0.44 0.48,0.08 0.89,-0.1 1.39,-0.04 0.44,0.05 0.79,0.33 1.2,0.16 0.34,-0.14 0.48,-0.22 0.87,-0.26 0.1,-0.01 0.27,0.03 0.34,-0.03 0.03,-0.14 0.05,-0.29 -0.12,-0.3 -0.14,-0.01 -0.28,0 -0.41,0.02 -0.31,0.06 -0.36,0.12 -0.61,0.25 -0.03,-0.65 0,-1.37 0,-2.03 -0.01,-0.55 -0.44,-1.01 -1,-1.04 -0.54,-0.03 -1.04,0.39 -1.09,0.94 -0.04,0.44 0.04,1.79 -0.01,2.03 -0.23,0.02 -0.38,0.02 -0.61,-0.03 -0.12,-0.03 -0.37,-0.1 -0.45,-0.19 -0.1,-0.11 -0.09,-0.4 -0.1,-0.55 -0.01,-0.2 -0.02,-0.41 -0.04,-0.61 -0.02,-0.3 -0.17,-2.31 -0.14,-2.42 0.1,-0.08 1.18,-0.04 1.39,-0.04 0.48,0 0.96,0 1.44,0 0.54,0 1.25,-0.01 1.79,0 0.15,0 0.17,0.04 0.17,0.18 -0.03,0.63 -0.09,1.39 -0.13,2.03 -0.02,0.33 0.26,0.3 0.28,0.08 0.03,-0.22 0.04,-0.45 0.05,-0.68 0.03,-0.35 0.15,-2.52 0.21,-2.68 0.2,-0.06 0.99,-0.03 1.26,-0.03 0.75,0 0.63,-0.12 0.68,0.61 0.01,0.24 0.23,3.53 0.25,3.59 0.03,0.08 0.15,0.12 0.22,0.08 0.09,-0.04 0.06,-0.18 0.05,-0.26 -0.05,-0.98 -0.15,-2.01 -0.21,-3.01l-0.06 -0.89c-0.02,-0.34 0.27,0.04 0.27,-0.69 0,-0.18 0.02,-0.48 0,-0.65 -0.03,-0.21 -0.32,-0.17 -0.48,-0.16 -0.27,0.02 -0.14,0.29 -0.18,0.46 -0.02,0.1 -0.15,0.08 -0.24,0.08 -0.07,0 -0.23,0.03 -0.27,-0.05 -0.07,-0.14 0.1,-0.46 -0.16,-0.49 -0.15,-0.01 -0.47,-0.05 -0.49,0.14 -0.03,0.3 0.11,0.4 -0.25,0.4 -0.35,0.01 -0.27,-0.03 -0.28,-0.35 0,-0.1 -0.03,-0.17 -0.14,-0.19 -0.05,0 -0.27,0 -0.33,0 -0.21,0.03 -0.15,0.33 -0.15,0.49 0,0.16 -0.02,0.5 0.01,0.63 0.06,0.26 0.21,0.07 0.19,0.46 -0.02,0.19 -0.04,0.43 -0.04,0.62l-0.43 0c-0.03,-0.11 -0.11,-1.32 -0.12,-1.55 -0.13,-1.55 -0.01,-0.89 0.23,-1.32 0.11,-0.2 0.08,-0.52 0.08,-0.75 0,-0.18 0.05,-0.66 -0.11,-0.75 -0.09,-0.05 -0.68,-0.06 -0.77,-0.01 -0.23,0.12 -0.03,0.55 -0.15,0.69 -0.07,0.03 -0.52,0.04 -0.59,0 -0.08,-0.1 -0.02,-0.4 -0.04,-0.53 -0.04,-0.22 -0.23,-0.19 -0.39,-0.19 -0.02,-0.13 -0.02,-1.1 0,-1.19 0.2,-0.19 0.73,-0.03 0.97,-0.03 0.44,0 0.76,-0.32 0.99,-0.67 0.03,-0.06 0.06,-0.15 -0.03,-0.17 -0.06,-0.01 -0.16,0.05 -0.22,0.07 -0.51,0.16 -0.74,-0.26 -1.31,-0.29 -0.15,0 -0.4,0.09 -0.41,-0.1 -0.01,-0.11 0.01,-0.4 -0.21,-0.3 -0.14,0.06 -0.09,0.35 -0.09,0.48 0,0.34 0.02,2.01 -0.01,2.2z"/>
    <path class="fil0" d="M15.34 11.77c-0.05,0.11 -0.42,-0.01 -0.53,-0.03 -0.19,-0.03 -0.37,-0.06 -0.56,-0.1 -0.75,-0.15 -0.57,-0.32 -0.63,1.13 -0.01,0.25 0.01,0.33 0.26,0.4 0.23,0.07 0.91,0.22 1.12,0.17 0.18,-0.04 0.21,-0.25 0.26,-0.4 0.05,-0.16 0.11,-0.33 0.16,-0.49 0.06,-0.16 0.11,-0.33 0.17,-0.49 0.05,-0.13 0.03,-0.13 0.15,-0.16 0.11,-0.03 0.13,-0.1 0.15,-0.2 0.05,-0.28 -0.08,-0.27 -0.31,-0.31l-1.09 -0.22c-0.15,-0.03 -0.4,-0.04 -0.51,-0.14 -0.01,-0.16 0.18,-0.41 0.31,-0.51 0.17,-0.14 0.41,-0.2 0.64,-0.15 0.32,0.07 0.54,0.33 0.61,0.64 0.03,0.12 -0.01,0.28 0.13,0.29 0.08,-0.19 -0.02,-0.5 -0.13,-0.67 -0.11,-0.17 -0.27,-0.32 -0.47,-0.39 -0.44,-0.15 -0.93,0.06 -1.14,0.47 -0.02,0.05 -0.11,0.27 -0.13,0.29 -0.07,0.06 -0.23,-0.04 -0.27,0.15 -0.1,0.39 0.13,0.35 0.41,0.41 0.24,0.05 0.48,0.09 0.71,0.14 0.13,0.02 0.25,0.04 0.37,0.06 0.08,0.02 0.3,0.03 0.32,0.11z"/>
    <path class="fil0" d="M17.94 9.84c-0.06,0.48 -0.87,0.48 -0.72,-0.2 0.11,-0.01 0.57,0.17 0.72,0.2zm-1.19 1.97c-0.16,0.02 -0.37,-0.15 -0.53,-0.08 -0.19,0.08 -0.26,0.83 -0.37,0.91 -0.07,0.05 -0.17,-0.02 -0.24,0.08 -0.04,0.05 -0.09,0.17 -0.07,0.23 0.02,0.03 0.43,0.01 0.69,0.07 0.5,0.12 0.78,0.39 1.09,0.48 0.16,0.04 0.56,0.08 0.68,-0.06 0.01,-0.14 -0.23,-0.33 -0.37,-0.35 -0.07,0.07 -0.07,0.16 -0.11,0.24l-0.2 -0.12c0.05,-0.19 0.31,-0.88 0.28,-1.01 -0.04,-0.16 -0.29,-0.17 -0.41,-0.23 -0.11,-0.05 -0.08,-0.11 -0.05,-0.2 0.09,-0.24 0.31,-1.12 0.39,-1.24 0.07,-0.13 0.48,0.02 0.69,-0.6 0.09,-0.26 0.01,-0.29 -0.21,-0.36 -0.16,-0.06 -0.33,-0.11 -0.5,-0.16 -0.13,-0.04 -0.39,-0.16 -0.49,-0.03 -0.09,0.1 -0.12,0.41 -0.1,0.54 0.03,0.22 0.11,0.26 0.23,0.41 0.08,0.09 -0.05,0.39 -0.09,0.5 -0.05,0.16 -0.1,0.33 -0.15,0.49 -0.04,0.13 -0.1,0.39 -0.16,0.49z"/>
    <path class="fil0" d="M11.09 6.16c-0.32,0.1 -0.3,0.37 -0.3,0.65 0,0.47 -0.01,0.41 0.54,0.41 0.15,0 0.28,0.01 0.29,-0.17 0.01,-0.15 0,-0.33 0,-0.48 -0.01,-0.28 -0.26,-0.49 -0.53,-0.41z"/>
    <path class="fil1" d="M7.37 8.02c-0.29,0.08 -0.28,0.32 -0.28,0.56 0.01,0.47 0.03,0.39 0.47,0.39 0.31,0.01 0.26,-0.08 0.26,-0.58 0,-0.25 -0.2,-0.44 -0.45,-0.37z"/>
    <path class="fil2" d="M14.86 8.02c-0.29,0.09 -0.27,0.33 -0.27,0.58 0,0.46 0.06,0.37 0.48,0.37 0.28,0.01 0.26,-0.11 0.24,-0.59 -0.01,-0.25 -0.21,-0.43 -0.45,-0.36z"/>
    <path class="fil2" d="M8.79 13.12c-0.13,0.07 -0.03,0.28 0.12,0.22 0.14,-0.06 0.06,-0.31 -0.12,-0.22z"/>
    <path class="fil2" d="M12.75 12.83c-0.14,0.07 -0.03,0.28 0.12,0.21 0.14,-0.05 0.03,-0.29 -0.12,-0.21z"/>
    <path class="fil3" d="M11 12.95c-0.15,0.05 -0.06,0.28 0.1,0.22 0.13,-0.05 0.07,-0.29 -0.1,-0.22z"/>
    <path class="fil1" d="M6.33 12.63c-0.16,0.08 -0.03,0.28 0.12,0.21 0.12,-0.06 0.03,-0.29 -0.12,-0.21z"/>
    <path class="fil4" d="M7.62 13.22c-0.17,0.07 -0.07,0.27 0.07,0.23 0.15,-0.05 0.09,-0.29 -0.07,-0.23z"/>
    <path class="fil5" d="M8.21 12.4c-0.14,0.04 -0.1,0.26 0.07,0.23 0.15,-0.03 0.1,-0.29 -0.07,-0.23z"/>
   </g>
   <rect class="fil6" width="22.65" height="14.42"/>
  </g>
 </g>
</svg>
