<?xml version="1.0" encoding="UTF-8"?>
<!DOCTYPE svg PUBLIC "-//W3C//DTD SVG 1.1//EN" "http://www.w3.org/Graphics/SVG/1.1/DTD/svg11.dtd">
<!-- Creator: CorelDRAW -->
<svg xmlns="http://www.w3.org/2000/svg" xml:space="preserve" width="75px" height="75px" version="1.1" style="shape-rendering:geometricPrecision; text-rendering:geometricPrecision; image-rendering:optimizeQuality; fill-rule:evenodd; clip-rule:evenodd"
viewBox="0 0 30.91 30.91"
 xmlns:xlink="http://www.w3.org/1999/xlink"
 xmlns:xodm="http://www.corel.com/coreldraw/odm/2003">
 <defs>
  <style type="text/css">
   <![CDATA[
    .fil0 {fill:none}
    .fil1 {fill:#2D394F}
   ]]>
  </style>
 </defs>
 <g id="Layer_x0020_1">
  <metadata id="CorelCorpID_0Corel-Layer"/>
  <rect class="fil0" width="30.91" height="30.91"/>
  <path class="fil1" d="M20.37 11.11c0.85,0.83 0.86,2.2 0.03,3.04l-5.58 5.62c-0.75,0.76 -1.93,0.85 -2.78,0.25 0,0 -0.01,-0.01 -0.02,-0.01 -0.09,-0.07 -0.17,-0.14 -0.25,-0.22l-2.73 -2.69c-0.84,-0.84 -0.92,-2.18 -0.11,-3.05 0.8,-0.87 2.2,-0.94 3.04,-0.11l1.3 1.28 4.05 -4.09c0.84,-0.84 2.21,-0.85 3.05,-0.02zm-5.68 -5.79c5.59,0 10.13,4.54 10.13,10.13 0,5.6 -4.54,10.13 -10.13,10.13 -5.6,0 -10.13,-4.53 -10.13,-10.13 0,-5.59 4.53,-10.13 10.13,-10.13z"/>
 </g>
</svg>
